<?xml version="1.0" standalone="no"?>
<!DOCTYPE svg PUBLIC "-//W3C//DTD SVG 20010904//EN"
 "http://www.w3.org/TR/2001/REC-SVG-20010904/DTD/svg10.dtd">
<svg version="1.0" xmlns="http://www.w3.org/2000/svg"
 width="197.000000pt" height="200.000000pt" viewBox="0 0 197.000000 200.000000"
 preserveAspectRatio="xMidYMid meet">

<g transform="translate(0.000000,200.000000) scale(0.100000,-0.100000)"
fill="#000000" stroke="none">
<path d="M817 1925 c-347 -66 -633 -337 -729 -690 -31 -115 -31 -355 0 -470
118 -434 508 -725 942 -702 242 13 442 105 615 282 97 99 166 211 211 342 40
117 54 199 54 313 0 368 -214 703 -547 857 -41 19 -109 43 -151 54 -103 27
-290 34 -395 14z m-264 -314 c20 -34 23 -101 5 -119 -31 -31 -68 -1 -68 53 0
28 27 95 39 95 4 0 14 -13 24 -29z m927 -36 c11 -39 10 -48 -4 -70 -20 -31
-51 -32 -67 -4 -22 43 16 154 45 129 8 -5 19 -30 26 -55z m-764 18 c-11 -58
-37 -88 -77 -88 -27 0 -35 4 -37 21 -4 27 33 73 72 90 46 20 49 18 42 -23z
m599 14 c61 -34 76 -107 22 -107 -27 0 -62 34 -72 70 -3 14 -9 33 -11 43 -7
23 13 21 61 -6z m-841 -110 c32 -52 30 -91 -6 -103 -34 -10 -58 27 -58 90 0
83 18 86 64 13z m1090 31 c14 -55 -1 -121 -31 -132 -41 -16 -67 38 -42 87 14
27 50 67 60 67 3 0 9 -10 13 -22z m-825 -69 c42 -18 43 -20 25 -33 -10 -8 -38
-19 -61 -26 -36 -11 -46 -11 -68 4 -29 19 -32 38 -9 60 21 21 60 20 113 -5z
m605 8 c26 -19 17 -59 -16 -71 -21 -8 -39 -5 -75 10 -25 10 -47 24 -47 29 -1
14 64 45 95 45 14 0 33 -6 43 -13z m-754 -2 c0 -3 -16 -29 -36 -58 -47 -68
-60 -102 -78 -197 -32 -166 10 -338 115 -476 39 -50 48 -74 29 -74 -17 0 -88
98 -120 166 -64 134 -76 326 -29 464 23 67 36 91 77 148 22 28 42 42 42 27z
m849 -40 c45 -63 70 -123 86 -211 19 -96 19 -155 0 -242 -19 -94 -40 -145 -91
-223 -52 -79 -70 -97 -85 -82 -8 8 1 26 29 62 159 201 175 505 36 686 -38 50
-40 55 -21 55 8 0 28 -20 46 -45z m-426 5 c9 -23 18 -30 39 -30 37 0 44 -17
18 -45 -18 -19 -21 -31 -16 -56 6 -30 5 -31 -22 -25 -34 9 -50 9 -86 0 -29 -7
-29 -6 -23 29 4 27 1 39 -14 53 -27 25 -24 44 9 44 20 0 32 8 44 30 22 38 37
38 51 0z m607 -48 c0 -67 -19 -102 -55 -102 -29 0 -49 32 -39 63 7 23 72 97
86 97 4 0 8 -26 8 -58z m-1206 8 c37 -41 46 -76 24 -98 -17 -17 -38 -15 -60 5
-13 12 -18 31 -18 75 0 32 4 58 9 58 5 0 25 -18 45 -40z m280 -29 c7 -11 -59
-65 -91 -75 -27 -9 -63 9 -63 31 0 35 30 53 91 53 32 0 60 -4 63 -9z m726 -9
c16 -13 21 -24 16 -40 -9 -27 -36 -35 -72 -22 -30 12 -84 58 -84 72 0 4 27 8
59 8 42 0 65 -5 81 -18z m226 -136 c-19 -46 -59 -67 -83 -43 -25 25 -7 64 47
105 l45 35 3 -31 c2 -16 -4 -46 -12 -66z m-1273 59 c51 -35 63 -96 22 -111
-22 -9 -63 32 -75 75 -19 70 -8 77 53 36z m277 -24 c0 -5 -18 -25 -41 -45 -32
-29 -47 -37 -72 -34 -42 4 -50 43 -15 70 24 18 128 26 128 9z m807 -15 c23
-20 26 -28 17 -43 -18 -29 -66 -28 -103 3 -17 14 -36 35 -42 45 -9 18 -6 19
45 19 44 0 61 -5 83 -24z m-1097 -90 c19 -7 40 -23 47 -36 24 -49 -25 -79 -74
-45 -20 14 -63 75 -63 89 0 10 52 5 90 -8z m270 6 c0 -5 -13 -28 -30 -50 -43
-60 -110 -71 -110 -19 0 28 27 55 66 67 39 11 74 12 74 2z m785 -3 c52 -13 78
-38 73 -71 -2 -18 -10 -24 -34 -26 -26 -3 -37 4 -68 39 -36 42 -46 69 -25 69
5 0 30 -5 54 -11z m285 -4 c0 -22 -74 -95 -96 -95 -43 0 -58 44 -25 74 36 32
121 47 121 21z m-423 -41 c3 -9 1 -25 -5 -35 -7 -10 -12 -21 -12 -24 0 -3 32
-5 70 -5 85 0 88 -5 71 -99 -15 -82 -63 -173 -119 -227 -51 -49 -141 -99 -194
-109 -42 -8 -48 -26 -24 -73 14 -27 127 -122 145 -122 15 0 22 -32 10 -46 -9
-11 -57 -14 -229 -14 -187 0 -219 2 -231 16 -11 14 -8 20 21 45 19 16 55 44
78 60 41 29 72 78 72 113 0 8 -15 17 -37 21 -165 31 -309 195 -321 366 l-5 69
77 0 c61 0 76 3 76 15 0 8 -4 15 -10 15 -5 0 -10 6 -10 13 0 34 21 37 297 37
244 0 274 -2 280 -16z"/>
<path d="M750 1040 c0 -27 3 -30 30 -30 27 0 30 3 30 30 0 27 -3 30 -30 30
-27 0 -30 -3 -30 -30z"/>
<path d="M631 944 c13 -69 41 -124 93 -181 57 -63 74 -68 46 -13 -24 47 -50
151 -50 203 l0 37 -49 0 -48 0 8 -46z"/>
<path d="M1257 912 c-3 -38 -17 -97 -31 -130 -13 -34 -21 -62 -16 -62 15 0 80
83 104 135 13 27 27 67 31 88 l7 37 -44 0 -45 0 -6 -68z"/>
<path d="M762 897 c6 -75 47 -173 88 -212 l28 -27 -23 64 c-19 52 -45 185 -45
229 0 5 -12 9 -26 9 -27 0 -27 0 -22 -63z"/>
<path d="M905 466 c-16 -8 -39 -21 -50 -30 -19 -15 -19 -15 14 -16 23 0 44 9
68 30 37 33 23 40 -32 16z"/>
</g>
</svg>
